<svg width="34" height="34" viewBox="0 0 34 34" fill="none" xmlns="http://www.w3.org/2000/svg">
<path d="M16.9998 2.83325C17.7513 2.83325 18.472 3.13176 19.0033 3.66312C19.5347 4.19447 19.8332 4.91514 19.8332 5.66659C19.8332 6.71492 19.2665 7.63575 18.4165 8.11742V9.91659H19.8332C22.4632 9.91659 24.9856 10.9614 26.8453 12.8211C28.705 14.6808 29.7498 17.2032 29.7498 19.8333H31.1665C31.5422 19.8333 31.9026 19.9825 32.1682 20.2482C32.4339 20.5139 32.5832 20.8742 32.5832 21.2499V25.4999C32.5832 25.8756 32.4339 26.236 32.1682 26.5017C31.9026 26.7673 31.5422 26.9166 31.1665 26.9166H29.7498V28.3333C29.7498 29.0847 29.4513 29.8054 28.92 30.3367C28.3886 30.8681 27.6679 31.1666 26.9165 31.1666H7.08317C6.33172 31.1666 5.61105 30.8681 5.0797 30.3367C4.54835 29.8054 4.24984 29.0847 4.24984 28.3333V26.9166H2.83317C2.45745 26.9166 2.09711 26.7673 1.83144 26.5017C1.56576 26.236 1.4165 25.8756 1.4165 25.4999V21.2499C1.4165 20.8742 1.56576 20.5139 1.83144 20.2482C2.09711 19.9825 2.45745 19.8333 2.83317 19.8333H4.24984C4.24984 17.2032 5.29463 14.6808 7.15436 12.8211C9.0141 10.9614 11.5364 9.91659 14.1665 9.91659H15.5832V8.11742C14.7332 7.63575 14.1665 6.71492 14.1665 5.66659C14.1665 4.91514 14.465 4.19447 14.9964 3.66312C15.5277 3.13176 16.2484 2.83325 16.9998 2.83325ZM10.6248 18.4166C9.68553 18.4166 8.78469 18.7897 8.1205 19.4539C7.45631 20.1181 7.08317 21.0189 7.08317 21.9583C7.08317 22.8976 7.45631 23.7984 8.1205 24.4626C8.78469 25.1268 9.68553 25.4999 10.6248 25.4999C11.5641 25.4999 12.465 25.1268 13.1292 24.4626C13.7934 23.7984 14.1665 22.8976 14.1665 21.9583C14.1665 21.0189 13.7934 20.1181 13.1292 19.4539C12.465 18.7897 11.5641 18.4166 10.6248 18.4166ZM23.3748 18.4166C22.4355 18.4166 21.5347 18.7897 20.8705 19.4539C20.2063 20.1181 19.8332 21.0189 19.8332 21.9583C19.8332 22.8976 20.2063 23.7984 20.8705 24.4626C21.5347 25.1268 22.4355 25.4999 23.3748 25.4999C24.3141 25.4999 25.215 25.1268 25.8792 24.4626C26.5434 23.7984 26.9165 22.8976 26.9165 21.9583C26.9165 21.0189 26.5434 20.1181 25.8792 19.4539C25.215 18.7897 24.3141 18.4166 23.3748 18.4166Z" fill="white"/>
</svg>
