<svg width="34" height="34" viewBox="0 0 34 34" fill="none" xmlns="http://www.w3.org/2000/svg">
<path d="M17.8126 26.2498C17.8126 26.4985 17.7138 26.7369 17.538 26.9127C17.3622 27.0885 17.1237 27.1873 16.8751 27.1873H13.1251C12.8764 27.1873 12.638 27.0885 12.4622 26.9127C12.2863 26.7369 12.1876 26.4985 12.1876 26.2498C12.1876 26.0012 12.2863 25.7627 12.4622 25.5869C12.638 25.4111 12.8764 25.3123 13.1251 25.3123H16.8751C17.1237 25.3123 17.3622 25.4111 17.538 25.5869C17.7138 25.7627 17.8126 26.0012 17.8126 26.2498ZM15.0001 12.6561C15.2782 12.6561 15.5501 12.5736 15.7813 12.4191C16.0126 12.2646 16.1928 12.0449 16.2993 11.788C16.4057 11.531 16.4336 11.2483 16.3793 10.9755C16.325 10.7027 16.1911 10.4521 15.9944 10.2554C15.7978 10.0588 15.5472 9.92485 15.2744 9.87059C15.0016 9.81633 14.7189 9.84418 14.4619 9.95061C14.205 10.057 13.9853 10.2373 13.8308 10.4685C13.6763 10.6998 13.5938 10.9717 13.5938 11.2498C13.5938 11.6228 13.742 11.9805 14.0057 12.2442C14.2694 12.5079 14.6271 12.6561 15.0001 12.6561ZM26.1278 18.4655L24.679 24.9849C24.6109 25.2961 24.4642 25.5847 24.2528 25.8231C24.0415 26.0615 23.7725 26.2417 23.4717 26.3466C23.2704 26.4178 23.0585 26.4542 22.8451 26.4544C22.4202 26.4541 22.0082 26.3087 21.6773 26.0423L18.4212 23.4373H11.5789L8.32272 26.0423C8.0741 26.2412 7.77891 26.3735 7.46498 26.4268C7.15106 26.4801 6.82874 26.4525 6.52841 26.3467C6.22809 26.2409 5.95966 26.0604 5.74843 25.8221C5.5372 25.5839 5.39012 25.2957 5.32108 24.9849L3.87229 18.4654C3.81099 18.1855 3.81425 17.8953 3.88183 17.6168C3.9494 17.3384 4.07951 17.079 4.26229 16.8583L7.73198 12.6946C7.83713 11.2596 8.15698 9.84838 8.68085 8.50822C10.056 4.96728 12.4938 2.65013 13.8246 1.58408C14.1594 1.31819 14.5748 1.17412 15.0024 1.17555C15.43 1.17697 15.8444 1.32381 16.1774 1.59193C17.491 2.65904 19.8979 4.97783 21.2593 8.51829C21.7662 9.82882 22.0812 11.2057 22.1944 12.6063L25.7378 16.8583C25.9206 17.079 26.0507 17.3384 26.1183 17.6169C26.1859 17.8954 26.1891 18.1856 26.1278 18.4655V18.4655ZM11.7984 21.5623H18.1934C19.8556 18.3994 23.233 9.74115 14.9962 3.04787C12.8 4.80767 6.17233 11.2824 11.7984 21.5623ZM10.0464 22.2622C8.81909 19.9739 8.07143 17.7324 7.80346 15.5376L5.70264 18.0586L7.15143 24.5781L10.0464 22.2622ZM24.2975 18.0586L22.1447 15.4754C21.8948 17.684 21.1627 19.9448 19.9483 22.2578L22.8487 24.5781L24.2975 18.0586Z" fill="white"/>
</svg>
